<svg width="35" height="35" viewBox="0 0 35 35" fill="none" xmlns="http://www.w3.org/2000/svg">
<path fill-rule="evenodd" clip-rule="evenodd" d="M7.44276 5.07919C6.57273 5.26812 5.74274 5.91702 5.34834 6.71674C4.97557 7.47253 4.99817 6.87742 5.00134 15.8496C5.00359 22.135 5.0175 23.9231 5.06505 24.0548C5.20706 24.4482 5.68206 24.6383 6.07582 24.4593C6.19386 24.4056 7.29333 23.5237 8.51909 22.4996L10.7477 20.6375L16.6228 20.6367C23.1912 20.6357 22.8499 20.6529 23.5932 20.2857C24.4028 19.8858 25.043 19.0579 25.2315 18.1671C25.3385 17.6618 25.3385 7.97936 25.2315 7.474C24.9853 6.3105 23.9991 5.32362 22.8365 5.07714C22.3453 4.97298 7.92308 4.97493 7.44276 5.07919ZM22.8195 6.71947C23.1661 6.88216 23.4279 7.14417 23.5905 7.4911L23.7184 7.76401V12.8206V17.8771L23.5905 18.15C23.4279 18.497 23.1661 18.759 22.8195 18.9217L22.5468 19.0497L16.3957 19.0741C10.7666 19.0965 10.2323 19.1055 10.0982 19.1802C10.0177 19.2251 9.19966 19.8901 8.28043 20.6581C7.36119 21.426 6.59783 22.0543 6.58401 22.0543C6.57024 22.0543 6.55897 18.8815 6.55897 15.0035C6.55897 7.2692 6.54237 7.70953 6.85119 7.24296C7.0261 6.97865 7.29753 6.77917 7.6476 6.65767C7.88842 6.57413 8.27759 6.57012 15.2241 6.58053L22.5468 6.59147L22.8195 6.71947ZM10.1446 9.76216C9.8216 9.90379 9.63546 10.2783 9.70468 10.6475C9.74749 10.8759 9.99124 11.1458 10.2126 11.21C10.3346 11.2454 11.9334 11.2572 15.2572 11.2473C20.0843 11.2329 20.1242 11.232 20.2579 11.132C20.5141 10.9406 20.5941 10.7845 20.5941 10.4755C20.5941 10.1665 20.5141 10.0104 20.2579 9.81897C20.1241 9.71897 20.0878 9.71814 15.2083 9.70758C11.1969 9.69884 10.2661 9.7089 10.1446 9.76216ZM26.5474 11.3259C26.4655 11.3616 26.3401 11.4603 26.2686 11.5453C25.848 12.0456 26.2202 12.8206 26.8811 12.8206C27.3288 12.8206 27.8887 13.1212 28.1355 13.4941C28.4463 13.9637 28.4309 13.5577 28.4173 20.8993L28.4049 27.5837L27.0564 26.5121C26.3147 25.9228 25.6666 25.4207 25.6163 25.3963C25.564 25.3711 23.0476 25.3416 19.7642 25.3276L14.0037 25.3032L13.731 25.1752C13.3832 25.012 13.1215 24.7495 12.9617 24.4036C12.8499 24.1615 12.8326 24.0496 12.8094 23.4136C12.781 22.6359 12.7542 22.5555 12.4471 22.326C12.2581 22.1848 11.795 22.1848 11.606 22.326C11.2995 22.5551 11.2712 22.6385 11.2544 23.3646C11.2351 24.1912 11.3125 24.6012 11.5969 25.1776C11.8838 25.7594 12.3761 26.2522 12.9572 26.5392C13.6976 26.905 13.4022 26.8892 19.5385 26.8902L25.0245 26.891L26.8368 28.3439C27.8335 29.1431 28.7478 29.8482 28.8686 29.911C29.2677 30.1183 29.7495 29.9503 29.9188 29.5448C30.0275 29.2843 30.0268 14.2415 29.918 13.7275C29.7295 12.8368 29.0893 12.0089 28.2797 11.609C27.6413 11.2936 26.8995 11.1724 26.5474 11.3259ZM10.1446 12.8888C9.82145 13.0308 9.63546 13.4051 9.70468 13.7743C9.74749 14.0026 9.99114 14.2726 10.2126 14.337C10.3332 14.372 11.4638 14.3841 13.695 14.3742C16.9441 14.3598 17.0011 14.3579 17.1336 14.2588C17.3898 14.0674 17.4697 13.9112 17.4697 13.6023C17.4697 13.2933 17.3898 13.1372 17.1336 12.9457C17.0009 12.8465 16.9477 12.8449 13.6462 12.8342C10.9335 12.8254 10.2651 12.8358 10.1446 12.8888Z" fill="#1A3B4B" stroke="#1A3B4B" stroke-width="0.5"/>
</svg>
