<svg width="187" height="36" viewBox="0 0 187 36" fill="none" xmlns="http://www.w3.org/2000/svg">
<g clip-path="url(#clip0_9_84)">
<path d="M10.3367 18.6793C10.7544 18.5284 11.1765 18.3996 11.5986 18.2842C13.2475 18.6172 14.9139 18.7015 16.6022 18.5017C14.716 19.0346 12.4252 19.0346 10.3367 18.6793ZM8.38894 18.6039C8.15151 18.3996 7.90968 18.2042 7.67226 18C7.93167 17.7869 8.18229 17.5693 8.43731 17.3606C9.05286 17.5959 9.66842 17.8046 10.2928 17.9689C9.65523 18.1465 9.01329 18.3552 8.38454 18.6039H8.38894ZM16.5451 17.4627C14.8787 17.2585 13.2299 17.3473 11.603 17.667C11.1809 17.5515 10.772 17.4228 10.3543 17.2718C12.4208 16.9343 14.6808 16.9388 16.5451 17.4627ZM12.9001 17.9778C14.5401 17.6537 16.2021 17.5426 17.8773 17.6448C13.0892 13.9594 8.01961 8.86647 3.52163 9.26165L11.0578 15.2471C12.9924 15.5046 15.336 16.215 17.0991 17.3917C14.7424 16.4459 12.4384 16.215 10.1565 16.2283C7.99322 14.4123 5.82998 12.5962 3.66233 10.7802C3.06436 10.8024 2.29931 11.0022 1.72332 11.2908L7.49638 16.0241L6.40157 16.9432C4.84508 15.6378 3.29739 14.3413 1.7497 13.0403C1.15613 13.0714 -0.00463867 13.693 -0.00463867 13.693L5.13088 18.0044L0.0437266 22.2715C0.0437266 22.2715 1.2001 22.8887 1.80247 22.9331C3.33257 21.6454 4.86707 20.3577 6.40157 19.0701L7.48759 19.9892C7.56673 19.9448 1.77608 24.6781 1.77608 24.6781C2.35647 24.9578 3.11273 25.1576 3.71509 25.1798C5.87834 23.3638 8.04159 21.5566 10.2048 19.7406C12.4868 19.7539 14.7907 19.5274 17.1475 18.5728C15.3799 19.7494 13.0364 20.4643 11.1062 20.713L3.57 26.7028C8.06797 27.098 13.1375 22.0051 17.9301 18.3197C16.2373 18.4218 14.5577 18.3152 12.8957 17.9778H12.9001ZM9.88826 25.202V35.0904C9.88826 35.0904 11.0798 34.5664 11.4887 34.1046V25.2997C13.9553 23.83 16.0087 21.9385 17.5124 19.5274C16.5935 21.6632 14.7907 23.79 12.9001 25.2997L12.7946 35.2369C13.375 34.9483 14.0037 34.4732 14.3994 34.0114V25.4018C15.8592 23.5902 17.1475 21.6143 17.9169 19.1367C17.6795 21.2902 16.7386 23.608 15.7053 25.2997L15.4547 35.0904C18.5984 31.7558 17.9609 24.5049 18.2203 18.3508C16.1406 21.3213 13.4057 23.6524 9.88826 25.2065V25.202ZM15.7053 10.7003C16.7386 12.4098 17.6795 14.7142 17.9169 16.8677C17.1475 14.3857 15.8592 12.4186 14.3994 10.607V1.98858C14.0037 1.52679 13.375 1.04725 12.7946 0.767517L12.9001 10.6958C14.7951 12.2144 16.5935 14.3368 17.5124 16.4726C16.0087 14.0571 13.9597 12.1655 11.4887 10.6958V1.89089C11.0798 1.43799 9.88826 0.909604 9.88826 0.909604V10.798C13.4057 12.3476 16.1406 14.6831 18.2203 17.6448C17.9609 11.4995 18.5984 4.23976 15.4547 0.909604L15.7053 10.6914V10.7003ZM28.676 17.3695C28.9222 17.5648 29.1596 17.7691 29.3971 17.9645C29.1377 18.182 28.8782 18.3907 28.6232 18.6083C28.0165 18.3641 27.3921 18.1687 26.7678 17.9911C27.4097 17.8224 28.0428 17.6137 28.676 17.3695ZM25.4707 17.6847C23.8175 17.3562 22.1555 17.2629 20.4627 17.4672C22.3489 16.9388 24.6397 16.9299 26.7326 17.2896C26.3193 17.4316 25.8972 17.5648 25.4707 17.6803V17.6847ZM20.5154 18.5062C22.1862 18.706 23.8307 18.6216 25.4619 18.293C25.8796 18.4129 26.2973 18.5417 26.7106 18.6882C24.6441 19.0434 22.3841 19.0301 20.5154 18.5062ZM33.3982 25.1798C34.0006 25.1576 34.7612 24.9667 35.3504 24.6781L29.5729 19.9448L30.6678 19.0301C32.2155 20.3311 33.7719 21.6276 35.3196 22.9375C35.9176 22.8931 37.074 22.2759 37.074 22.2759L31.9384 17.9645L37.0212 13.693C37.0212 13.693 35.8604 13.0714 35.2625 13.0403C33.7324 14.3235 32.1979 15.6112 30.6634 16.8988L29.5817 15.9797C29.4938 16.0241 35.2888 11.2908 35.2888 11.2908C34.7129 11.0067 33.9522 10.8024 33.3542 10.7802C31.191 12.5962 29.0277 14.4123 26.8557 16.2283C24.5737 16.215 22.2654 16.4459 19.9131 17.3917C21.6806 16.215 24.0241 15.509 25.9631 15.2471L33.4905 9.26165C29.0014 8.86647 23.9274 13.9594 19.1348 17.6492C20.8232 17.5471 22.4984 17.6537 24.156 17.9867C22.516 18.3152 20.854 18.4218 19.1876 18.3197C23.9802 22.0051 29.0497 27.098 33.5433 26.7028L26.0027 20.713C24.0725 20.4643 21.7334 19.7494 19.9658 18.5728C22.3138 19.5274 24.6177 19.7539 26.8997 19.7406C29.0673 21.561 31.2262 23.3682 33.3894 25.1798H33.3982ZM18.6644 18.3463C18.9106 24.5005 18.2818 31.7558 21.4212 35.0815L21.1662 25.2997C20.1417 23.5991 19.2008 21.2857 18.9634 19.1367C19.7328 21.6143 21.0123 23.5902 22.4676 25.4018V34.0114C22.8678 34.4732 23.5009 34.9483 24.0769 35.2369L23.9802 25.2997C22.0807 23.79 20.2868 21.6587 19.3635 19.5274C20.8672 21.9429 22.9117 23.83 25.3827 25.2997V34.1046C25.7873 34.5664 26.9876 35.0815 26.9876 35.0815V25.202C23.4569 23.6524 20.7353 21.3168 18.66 18.3463H18.6644ZM26.9876 10.7891V0.909604C26.9876 0.909604 25.7917 1.43799 25.3827 1.89089V10.6958C22.9073 12.1655 20.8672 14.0571 19.3635 16.4726C20.2868 14.3368 22.0763 12.2144 23.9802 10.6958L24.0769 0.767517C23.5009 1.04725 22.8722 1.52679 22.4676 1.98858V10.6026C21.0123 12.4142 19.7328 14.3857 18.9634 16.8633C19.2008 14.7098 20.1417 12.4009 21.1662 10.6958L21.4344 0.909604C18.2994 4.23976 18.9238 11.4995 18.6776 17.6448C20.7573 14.6787 23.4745 12.3476 27.0052 10.7891" fill="#1A3B4B"/>
<path d="M54.7935 31.9867C53.6899 32.5817 52.45 32.8747 51.087 32.8747C50.3967 32.8747 49.7591 32.7637 49.1787 32.5373C48.6027 32.3108 48.1059 31.9955 47.6882 31.5826C47.2705 31.1697 46.9407 30.6768 46.7077 30.104C46.4703 29.5268 46.3516 28.8874 46.3516 28.1814C46.3516 27.4754 46.4703 26.8049 46.7077 26.2188C46.9451 25.6283 47.2705 25.1265 47.6882 24.7136C48.1059 24.2962 48.6027 23.9765 49.1787 23.7545C49.7591 23.5281 50.3923 23.4171 51.087 23.4171C51.7817 23.4171 52.4104 23.5014 53.0128 23.6657C53.6108 23.83 54.1472 24.1275 54.622 24.5493L53.4437 25.7437C53.1579 25.464 52.8105 25.2464 52.4016 25.0955C51.9927 24.9445 51.5574 24.869 51.1046 24.869C50.6517 24.869 50.2208 24.9534 49.8471 25.1177C49.4733 25.2819 49.148 25.5128 48.8797 25.8059C48.6115 26.0989 48.4005 26.4408 48.2554 26.8316C48.1059 27.2179 48.0312 27.6397 48.0312 28.0926C48.0312 28.5766 48.1059 29.0206 48.2554 29.4291C48.4005 29.8376 48.6115 30.1884 48.8797 30.4859C49.148 30.7834 49.4733 31.0143 49.8471 31.183C50.2252 31.3562 50.6429 31.4405 51.1046 31.4405C51.5135 31.4405 51.8916 31.4006 52.2521 31.3251C52.6127 31.2496 52.9292 31.1297 53.2062 30.9699V28.8474H51.3728V27.3999H54.8023V32.0044L54.7935 31.9867Z" fill="#1A3B4B"/>
<path d="M64.0224 25.5483L65.403 29.2115H62.6198L64.0224 25.5483ZM63.3761 23.6435L59.4761 32.6438H61.2612L62.0746 30.5835H65.9614L66.7968 32.6438H68.6171L64.7567 23.6435H63.3761Z" fill="#1A3B4B"/>
<path d="M73.4141 23.6435V32.6482H78.8178V31.1963H75.0101V23.6435H73.4141Z" fill="#1A3B4B"/>
<path d="M83.7776 23.6435V32.6482H89.1857V31.1963H85.3736V23.6435H83.7776Z" fill="#1A3B4B"/>
<path d="M94.1453 23.6435V32.6482H100.31V31.1963H95.7413V28.7542H99.8524V27.3067H95.7413V25.091H100.081V23.6435H94.1453Z" fill="#1A3B4B"/>
<path d="M108.51 27.4576C108.738 27.4576 108.963 27.4443 109.191 27.4266C109.42 27.4044 109.631 27.3511 109.816 27.2711C110.005 27.1912 110.159 27.0669 110.277 26.9026C110.396 26.7383 110.458 26.5074 110.458 26.2099C110.458 25.948 110.405 25.7348 110.291 25.575C110.181 25.4151 110.04 25.2908 109.864 25.2109C109.684 25.131 109.49 25.0777 109.275 25.051C109.059 25.0244 108.853 25.0111 108.65 25.0111H107.27V27.4532H108.51V27.4576ZM105.674 23.6435H108.787C109.218 23.6435 109.631 23.6835 110.035 23.7634C110.436 23.8433 110.792 23.9854 111.104 24.1763C111.416 24.3717 111.667 24.6337 111.851 24.9667C112.036 25.2997 112.128 25.7171 112.128 26.2277C112.128 26.8804 111.948 27.4266 111.592 27.8661C111.231 28.3057 110.721 28.5721 110.053 28.6698L112.432 32.6482H110.506L108.431 28.8341H107.265V32.6482H105.669V23.6479L105.674 23.6435Z" fill="#1A3B4B"/>
<path d="M122.232 23.6435L120.003 27.2312L117.8 23.6435H115.804L119.172 28.7941V32.6482H120.764V28.7941L124.132 23.6435H122.232Z" fill="#1A3B4B"/>
<path d="M50.977 9.05742H53.4481C53.7778 9.05742 54.0988 9.02634 54.411 8.96418C54.7188 8.89757 54.9958 8.79101 55.242 8.64004C55.4882 8.48907 55.6861 8.28038 55.8356 8.01841C55.9851 7.75644 56.0642 7.42342 56.0642 7.02824C56.0642 6.59754 55.9631 6.2512 55.7652 5.98923C55.5674 5.72726 55.3123 5.52301 55.0046 5.38092C54.6968 5.23884 54.3494 5.14559 53.9713 5.10563C53.5888 5.06567 53.2238 5.04791 52.8765 5.04791H50.977V9.06186V9.05742ZM47.2705 1.89536H53.5228C54.3934 1.89536 55.22 1.97528 55.9938 2.13513C56.7721 2.29497 57.4492 2.57027 58.0296 2.96101C58.6056 3.35175 59.0672 3.87569 59.4058 4.53728C59.7444 5.19887 59.9158 6.02919 59.9158 7.03268C59.9158 8.03617 59.7576 8.84873 59.441 9.51476C59.1244 10.1808 58.6891 10.7181 58.1351 11.1132C57.5767 11.5129 56.9216 11.7926 56.1609 11.9613C55.4003 12.13 54.5781 12.2144 53.6899 12.2144H50.9814V18.8037H47.2705V1.89536Z" fill="#1A3B4B"/>
<path d="M68.3313 8.89313H70.5165C70.8507 8.89313 71.2024 8.87981 71.5762 8.85761C71.9499 8.83097 72.2841 8.75992 72.5874 8.64448C72.8864 8.52459 73.137 8.3381 73.3349 8.08501C73.5328 7.82748 73.6295 7.47226 73.6295 7.01048C73.6295 6.57978 73.546 6.23788 73.3701 5.98479C73.1942 5.7317 72.9744 5.53633 72.7062 5.39868C72.4336 5.26548 72.1258 5.17223 71.7784 5.12339C71.4267 5.07455 71.0881 5.05235 70.7584 5.05235H68.3313V8.89757V8.89313ZM64.6248 1.89536H71.1365C71.9939 1.89536 72.8029 1.97972 73.5723 2.14401C74.3418 2.31274 75.0145 2.59247 75.5949 2.98321C76.1709 3.37395 76.6325 3.89789 76.9711 4.55948C77.3097 5.21663 77.4811 6.04251 77.4811 7.02824C77.4811 8.22266 77.169 9.23947 76.5534 10.0742C75.9334 10.909 75.0321 11.4374 73.8405 11.6594L78.1187 18.7992H73.6735L70.156 12.0412H68.3269V18.7992H64.6204V1.89536H64.6248Z" fill="#1A3B4B"/>
<path d="M85.3516 10.3495C85.3516 11.1443 85.4747 11.8725 85.7166 12.5341C85.9628 13.1957 86.3145 13.7685 86.7762 14.2569C87.2379 14.7409 87.7875 15.1183 88.4294 15.3892C89.0714 15.66 89.7881 15.7977 90.5795 15.7977C91.3709 15.7977 92.0876 15.66 92.7295 15.3892C93.3715 15.1183 93.9211 14.7409 94.3828 14.2569C94.84 13.7729 95.1962 13.1957 95.4424 12.5341C95.6886 11.8769 95.8117 11.1443 95.8117 10.3495C95.8117 9.55472 95.6886 8.84428 95.4424 8.17825C95.1962 7.50778 94.8444 6.93055 94.3828 6.44657C93.9211 5.96258 93.3715 5.58516 92.7295 5.30987C92.0876 5.03902 91.3709 4.90581 90.5795 4.90581C89.7881 4.90581 89.0714 5.03902 88.4294 5.30987C87.7875 5.58072 87.2379 5.95814 86.7762 6.44657C86.3189 6.93055 85.9628 7.50778 85.7166 8.17825C85.4704 8.84428 85.3516 9.57248 85.3516 10.3495ZM81.5 10.3495C81.5 8.99525 81.7242 7.76975 82.1771 6.66858C82.63 5.57184 83.2587 4.63496 84.0678 3.86236C84.8768 3.08976 85.8353 2.49922 86.9433 2.08184C88.0513 1.6689 89.2648 1.46021 90.5795 1.46021C91.8941 1.46021 93.1077 1.66445 94.2157 2.08184C95.3237 2.49477 96.2866 3.08976 97.0912 3.86236C97.9002 4.63496 98.529 5.5674 98.9819 6.66858C99.4303 7.76531 99.659 8.99525 99.659 10.3495C99.659 11.7038 99.4347 12.9248 98.9819 14.026C98.529 15.1272 97.9002 16.0641 97.0912 16.8322C96.2822 17.6048 95.3237 18.1998 94.2157 18.6083C93.1077 19.0213 91.8941 19.2299 90.5795 19.2299C89.2648 19.2299 88.0513 19.0213 86.9433 18.6083C85.8353 18.1954 84.8724 17.6048 84.0678 16.8322C83.2587 16.0596 82.63 15.1272 82.1771 14.026C81.7242 12.9293 81.5 11.7038 81.5 10.3495Z" fill="#1A3B4B"/>
<path d="M108.264 9.0574H110.735C111.069 9.0574 111.39 9.02632 111.698 8.96416C112.005 8.89756 112.282 8.79099 112.529 8.64002C112.775 8.48906 112.973 8.28037 113.122 8.01839C113.272 7.75642 113.346 7.42341 113.346 7.02823C113.346 6.59753 113.25 6.25119 113.052 5.98922C112.854 5.72724 112.599 5.52299 112.291 5.38091C111.983 5.23882 111.64 5.14558 111.258 5.10561C110.875 5.06565 110.51 5.04789 110.163 5.04789H108.264V9.06184V9.0574ZM104.557 1.8909H110.809C111.68 1.8909 112.507 1.97082 113.28 2.13067C114.059 2.29052 114.736 2.56581 115.312 2.95655C115.888 3.34729 116.349 3.87123 116.692 4.53283C117.031 5.19442 117.202 6.02474 117.202 7.02823C117.202 8.03171 117.044 8.84427 116.728 9.51031C116.411 10.1763 115.976 10.7136 115.422 11.1088C114.868 11.5084 114.208 11.7881 113.448 11.9569C112.687 12.1256 111.86 12.21 110.977 12.21H108.264V18.7992H104.557V1.89534V1.8909Z" fill="#1A3B4B"/>
<path d="M122.052 1.89536H133.484V5.33652H125.759V8.48463H133.053V11.9214H125.759V15.3625H133.91V18.8037H122.052V1.89536Z" fill="#1A3B4B"/>
<path d="M142.968 8.89313H145.153C145.487 8.89313 145.839 8.87981 146.213 8.85761C146.586 8.83097 146.921 8.75992 147.224 8.64448C147.523 8.52459 147.774 8.3381 147.971 8.08501C148.169 7.82748 148.27 7.47226 148.27 7.01048C148.27 6.57978 148.182 6.23788 148.007 5.98479C147.831 5.7317 147.611 5.53633 147.343 5.39868C147.074 5.26548 146.767 5.17223 146.415 5.12339C146.068 5.07455 145.729 5.05235 145.395 5.05235H142.972V8.89757L142.968 8.89313ZM139.257 1.89536H145.769C146.626 1.89536 147.439 1.97972 148.204 2.14401C148.974 2.31274 149.647 2.59247 150.227 2.98321C150.803 3.37395 151.265 3.89789 151.608 4.55948C151.951 5.21663 152.118 6.04251 152.118 7.02824C152.118 8.22266 151.81 9.23947 151.19 10.0742C150.574 10.909 149.669 11.4374 148.481 11.6594L152.76 18.7992H148.314L144.797 12.0412H142.968V18.7992H139.257V1.89536Z" fill="#1A3B4B"/>
<path d="M159.869 5.18999H155.063V1.89536H168.377V5.18999H163.576V18.8037H159.869V5.18999Z" fill="#1A3B4B"/>
<path d="M182.403 1.89536L178.622 8.22266L175.056 1.89536H170.448L176.767 11.5883V18.8037H180.477V11.5883L186.8 1.89536H182.403Z" fill="#1A3B4B"/>
</g>
<defs>
<clipPath id="clip0_9_84">
<rect width="186.8" height="34.4649" fill="white" transform="translate(0 0.767517)"/>
</clipPath>
</defs>
</svg>
