<svg width="35" height="35" viewBox="0 0 35 35" fill="none" xmlns="http://www.w3.org/2000/svg">
<path d="M30 7.5H6C5.46957 7.5 4.96086 7.71071 4.58579 8.08579C4.21071 8.46086 4 8.96957 4 9.5V25.5C4 26.0304 4.21071 26.5391 4.58579 26.9142C4.96086 27.2893 5.46957 27.5 6 27.5H30C30.5304 27.5 31.0391 27.2893 31.4142 26.9142C31.7893 26.5391 32 26.0304 32 25.5V9.5C32 8.96957 31.7893 8.46086 31.4142 8.08579C31.0391 7.71071 30.5304 7.5 30 7.5ZM27.8 9.5L18 16.28L8.2 9.5H27.8ZM6 25.5V10.41L17.43 18.32C17.5974 18.4361 17.7963 18.4984 18 18.4984C18.2037 18.4984 18.4026 18.4361 18.57 18.32L30 10.41V25.5H6Z" fill="#1A3B4B"/>
</svg>
